P2
100 100
255
255 255 255 255 255 255 255 255 255 255 255 255 255 255 255 255 255 255 255 255 255 255 255 255 255 255 255 255 255 255 255 255 255 255 255 255 255 255 255 255 255 255 255 255 255 255 255 255 255 255 255 255 255 255 255 255 255 255 255 255 255 255 255 255 255 255 255 255 255 255 255 255 255 255 255 255 255 255 255 255 255 255 255 255 255 255 255 255 255 255 255 255 255 255 255 255 255 255 255 255
255 255 255 255 255 255 255 255 255 255 255 255 255 255 255 255 255 255 255 255 255 255 255 255 255 255 255 255 255 255 255 255 255 255 255 255 255 255 255 255 255 255 255 255 255 255 255 255 255 255 255 255 255 255 255 255 255 255 255 255 255 255 255 255 255 255 255 255 255 255 255 255 255 255 255 255 255 255 255 255 255 255 255 255 255 255 255 255 255 255 255 255 255 255 255 255 255 255 255 255
255 255 255 255 255 255 255 255 255 255 255 255 255 255 255 255 255 255 255 255 255 255 255 255 255 255 255 255 255 255 255 255 255 255 255 255 255 255 255 255 255 255 255 255 255 255 255 255 255 255 255 255 255 255 255 255 255 255 255 255 255 255 255 255 255 255 255 255 255 255 255 255 255 255 255 255 255 255 255 255 255 255 255 255 255 255 255 255 255 255 255 255 255 255 255 255 255 255 255 255
255 255 255 255 255 255 255 255 255 255 255 255 255 255 255 255 255 255 255 255 255 255 255 255 255 255 255 255 255 255 255 255 255 255 255 255 255 255 255 255 255 255 255 255 255 255 255 255 255 255 255 255 255 255 255 255 255 255 255 255 255 255 255 255 255 255 255 255 255 255 255 255 255 255 255 255 255 255 255 255 255 255 255 255 255 255 255 255 255 255 255 255 255 255 255 255 255 255 255 255
255 255 255 255 255 255 255 255 255 255 255 255 255 255 255 255 255 255 255 255 255 255 254 252 251 251 253 254 255 255 255 255 255 255 255 255 255 255 255 255 255 255 255 255 255 255 255 255 253 252 253 254 255 255 255 255 255 255 255 255 255 255 255 255 255 255 255 254 251 249 251 254 255 255 255 255 255 255 255 255 255 254 246 246 252 255 255 255 255 255 255 255 255 255 255 255 255 255 255 255
255 255 255 255 255 255 255 255 255 255 255 255 255 255 255 255 255 255 255 255 248 238 231 229 229 231 234 236 241 248 254 255 255 255 255 255 255 255 255 255 255 255 255 255 255 253 249 248 245 243 243 245 249 252 255 255 255 255 255 255 255 255 255 255 255 254 239 225 223 224 227 236 248 254 255 255 255 255 255 255 243 203 190 194 209 238 255 255 255 255 255 255 255 255 255 255 255 255 255 255
255 255 255 255 255 255 255 255 255 255 255 255 255 255 255 255 255 255 249 233 224 222 223 224 224 226 228 230 233 237 241 250 255 255 255 255 255 255 255 255 255 255 255 255 249 241 240 239 237 233 232 233 238 245 250 253 255 255 255 255 255 255 255 255 250 218 205 211 219 224 228 230 233 242 254 255 255 255 255 248 190 178 183 189 204 215 244 255 255 255 255 255 255 255 255 255 255 255 255 255
255 255 255 255 255 255 255 255 255 255 255 255 255 255 255 255 255 240 222 221 222 221 220 218 218 218 219 220 223 230 238 244 248 254 255 255 255 255 255 255 255 255 255 244 225 231 232 230 230 230 229 228 227 229 238 247 251 255 255 255 255 255 255 253 216 197 204 212 220 224 228 231 234 235 244 255 255 255 255 224 175 178 178 188 213 217 231 255 255 255 255 255 255 255 255 255 255 255 255 255
255 255 255 255 255 255 255 255 255 255 255 255 255 255 255 255 235 216 218 221 220 219 219 217 216 215 217 217 216 218 224 237 245 250 254 255 255 255 255 255 255 255 245 236 227 206 226 228 228 229 229 229 228 228 226 234 245 250 255 255 255 255 255 230 195 200 205 212 220 223 228 231 234 236 237 251 255 255 255 214 173 172 175 185 212 218 227 254 255 255 255 255 255 255 255 255 255 255 255 255
255 255 255 255 255 255 255 255 255 255 255 255 255 255 255 240 214 214 218 220 221 219 217 217 216 214 215 215 214 216 217 221 236 248 251 255 255 255 255 255 255 250 225 227 238 221 208 227 227 227 228 228 229 228 228 226 234 243 252 255 255 255 254 208 195 201 207 213 217 221 225 230 233 236 237 246 255 255 255 212 172 171 174 184 210 217 226 254 255 255 255 255 255 255 255 255 255 255 255 255
255 255 255 255 255 255 255 255 255 255 255 255 255 255 250 216 211 216 219 219 220 219 217 217 216 214 213 213 213 214 215 216 220 240 249 253 255 255 255 255 255 234 219 226 227 239 218 209 226 226 226 227 228 228 228 227 226 238 246 255 255 255 250 200 197 201 207 213 215 218 223 227 231 235 236 242 255 255 255 211 171 170 173 184 209 215 225 254 255 255 255 255 255 255 255 255 255 255 255 255
255 255 255 255 255 255 255 255 255 255 255 255 255 255 229 207 213 217 219 219 218 219 217 217 216 214 214 212 213 212 213 215 216 224 246 251 255 255 255 255 252 217 220 225 225 228 238 214 209 225 225 225 226 226 226 227 225 231 240 253 255 255 247 197 197 198 204 210 213 217 220 224 230 233 234 240 255 255 255 211 170 168 172 182 208 214 225 254 255 255 255 255 255 255 255 255 255 255 255 255
255 255 255 255 255 255 255 255 255 255 255 255 255 249 210 209 214 218 219 219 218 218 216 216 216 214 215 214 213 214 213 213 215 216 236 250 253 255 255 255 244 207 222 224 225 225 228 239 209 212 225 225 226 225 226 225 226 226 235 249 255 255 250 196 191 194 199 205 209 213 216 222 227 231 232 242 255 255 255 211 168 166 171 181 207 213 224 254 255 255 255 255 255 255 255 255 255 255 255 255
255 255 255 255 255 255 255 255 255 255 255 255 255 236 204 209 215 218 219 218 218 217 215 216 216 215 215 214 212 212 213 213 214 216 226 248 251 255 255 255 236 203 222 224 225 226 225 230 236 205 211 222 224 225 225 226 226 225 231 246 255 255 255 206 185 191 194 200 205 210 215 220 225 229 228 246 255 255 255 211 167 166 170 180 207 213 223 254 255 255 255 255 255 255 255 255 255 255 255 255
255 255 255 255 255 255 255 255 255 255 255 255 255 223 202 211 216 218 219 217 217 217 216 215 215 215 215 212 212 210 212 212 213 216 220 242 251 254 255 255 232 199 222 224 224 225 224 224 230 234 200 212 222 223 223 223 224 224 228 243 255 255 255 235 181 180 185 192 200 206 211 216 222 223 230 253 255 255 255 208 168 167 170 180 207 212 222 253 255 255 255 255 255 255 255 255 255 255 255 255
255 255 255 255 255 255 255 255 255 255 255 255 255 215 202 211 217 218 218 217 216 216 216 215 215 216 215 212 212 210 211 212 212 216 218 235 249 254 255 255 235 194 221 222 223 224 224 224 225 232 228 198 215 223 223 223 224 224 225 243 255 255 255 255 215 168 172 183 192 200 207 210 215 220 246 255 255 255 255 193 162 162 169 179 205 213 217 250 255 255 255 255 255 255 255 255 255 255 255 255
255 255 255 255 255 255 255 255 255 255 255 255 254 211 201 212 217 217 217 216 216 215 214 214 214 214 215 212 212 211 211 210 211 214 217 234 249 254 255 255 244 188 216 222 222 222 223 223 223 224 232 225 199 218 223 223 223 223 223 247 255 255 255 255 254 214 170 169 181 191 196 203 217 245 255 255 255 255 255 191 159 156 165 176 204 214 218 250 255 255 255 255 255 255 255 255 255 255 255 255
255 255 255 255 255 255 255 255 255 255 255 255 255 210 200 211 216 217 217 214 214 213 213 213 214 213 214 212 211 211 209 210 212 213 216 234 247 253 255 255 253 197 200 222 222 222 223 223 222 222 223 235 222 199 220 222 221 221 225 253 255 255 255 255 255 255 240 215 202 206 217 235 251 255 255 255 255 255 255 191 157 156 165 175 203 213 217 250 255 255 255 255 255 255 255 255 255 255 255 255
255 255 255 255 255 255 255 255 255 255 255 255 255 214 198 210 215 216 215 214 214 213 212 214 213 213 213 213 212 210 210 210 212 215 217 235 246 254 255 255 255 225 180 214 221 221 222 222 221 221 222 222 235 215 199 219 221 219 238 255 255 255 255 255 255 255 255 255 255 255 255 255 255 255 255 255 255 255 255 191 156 154 164 174 201 213 217 251 255 255 255 255 255 255 255 255 255 255 255 255
255 255 255 255 255 255 255 255 255 255 255 255 255 224 195 206 214 216 215 215 214 213 211 213 213 213 213 214 213 211 210 212 214 216 220 235 245 254 255 255 255 251 193 189 219 220 221 221 221 220 222 221 222 235 208 199 212 224 252 255 255 255 255 255 255 255 255 255 255 255 255 255 255 255 255 255 255 255 255 191 155 153 163 174 200 212 217 251 255 255 255 255 255 255 255 255 255 255 255 255
255 255 255 255 255 255 255 255 255 255 255 255 255 238 193 200 211 216 216 216 214 213 212 213 214 213 212 215 214 212 211 214 216 217 224 236 246 255 255 255 255 255 240 180 192 217 219 219 219 219 220 220 219 222 233 200 203 246 255 255 255 255 255 255 255 255 255 255 255 255 255 255 255 255 255 255 255 255 255 192 154 151 161 173 198 210 216 251 255 255 255 255 255 255 255 255 255 255 255 255
255 255 255 255 255 255 255 255 255 255 255 255 255 251 203 194 207 213 215 215 214 213 212 213 214 213 213 213 213 213 214 215 216 218 228 235 250 255 255 255 255 255 255 239 187 181 204 218 220 219 217 217 217 209 205 222 245 255 255 255 255 255 255 255 255 255 255 255 253 248 245 248 254 255 255 255 255 255 255 191 154 152 162 175 202 213 218 251 255 255 255 255 255 255 255 255 255 255 255 255
255 255 255 255 255 255 255 255 255 255 255 255 255 255 228 189 198 210 214 214 214 213 213 214 214 214 213 214 215 214 216 215 216 223 230 240 255 255 255 255 255 255 255 255 250 216 187 184 192 198 200 197 193 201 228 252 255 255 255 255 255 255 255 255 255 255 255 245 230 233 230 231 237 250 255 255 255 255 255 193 152 151 160 173 198 210 217 252 255 255 255 255 255 255 255 255 255 255 255 255
255 255 255 255 255 255 255 255 255 255 255 255 255 255 252 205 188 201 210 213 214 214 213 213 215 217 216 216 217 217 216 217 220 227 232 251 255 255 255 255 255 255 255 255 255 255 249 229 213 205 206 216 234 250 255 255 255 255 255 255 255 255 255 255 255 255 247 229 221 221 229 228 226 232 250 255 255 255 255 213 148 152 158 169 185 196 222 254 255 255 255 255 255 255 255 255 255 255 255 255
255 255 255 255 255 255 255 255 255 255 255 255 255 255 255 243 193 187 201 210 213 214 214 214 215 217 218 218 219 218 217 219 224 229 246 255 255 255 255 255 255 255 255 255 255 255 255 255 255 255 255 255 255 255 255 255 255 255 255 255 255 255 255 255 255 255 230 222 230 220 221 227 226 225 238 254 255 255 255 249 180 143 150 161 172 201 246 255 255 255 255 255 255 255 255 255 255 255 255 255
255 255 255 255 255 255 255 255 255 255 255 255 255 255 255 255 237 191 185 197 207 212 214 215 215 216 218 219 219 219 221 223 227 244 255 255 255 255 255 255 255 255 255 255 255 255 255 255 255 255 255 255 255 255 255 255 255 255 255 255 255 255 255 255 255 254 218 222 225 230 216 219 225 225 230 252 255 255 255 255 251 212 182 184 211 247 255 255 255 255 255 255 255 255 255 255 255 255 255 255
255 255 255 255 255 255 255 255 255 255 255 255 255 255 255 255 255 241 199 182 189 198 207 211 214 215 216 218 217 217 220 228 246 255 255 255 255 255 255 255 255 255 255 255 255 255 255 255 255 255 255 255 255 255 255 255 255 255 255 255 255 255 255 255 255 254 212 220 223 224 227 212 221 223 226 252 255 255 255 255 255 255 255 255 255 255 255 255 255 255 255 255 255 255 255 255 255 255 255 255
255 255 255 255 255 255 255 255 255 255 255 255 255 255 255 255 255 255 251 223 197 186 189 191 199 204 206 207 211 220 236 252 255 255 255 255 255 255 255 255 255 255 255 255 255 255 252 251 249 247 247 247 247 248 250 252 254 255 255 255 255 255 255 255 255 255 221 209 224 222 223 226 212 219 230 254 255 255 255 255 255 255 255 255 255 255 255 255 255 255 255 255 255 255 255 255 255 255 255 255
255 255 255 255 255 255 255 255 255 255 255 255 255 255 255 255 255 255 255 255 253 240 226 215 211 213 219 229 241 252 255 255 255 255 255 255 255 255 255 255 255 252 232 218 209 203 200 200 197 196 201 191 195 198 201 203 207 211 218 228 244 255 255 255 255 255 248 200 210 220 221 222 218 209 247 255 255 255 255 255 247 243 249 254 255 255 255 255 255 255 255 255 255 255 255 255 255 255 255 255
255 255 255 255 255 255 255 255 255 255 255 255 255 255 255 255 255 255 255 255 255 255 255 255 255 255 255 255 255 255 255 255 255 255 255 255 255 255 255 255 248 202 182 184 185 187 190 193 194 193 201 187 191 193 195 196 197 196 196 198 206 230 254 255 255 255 255 244 208 203 205 206 217 245 255 255 255 255 246 212 198 205 217 227 245 255 255 255 255 255 255 255 255 255 255 255 255 255 255 255
255 255 255 255 255 255 255 255 255 255 255 255 255 255 255 255 255 255 255 255 255 255 255 255 255 255 255 255 255 255 255 255 255 255 255 255 255 255 255 254 207 186 192 193 194 195 196 197 197 197 206 190 196 198 199 200 203 203 203 203 208 212 238 255 255 255 255 255 255 243 235 242 254 255 255 255 255 244 198 189 194 204 217 227 230 247 255 255 255 255 255 255 255 255 255 255 255 255 255 255
255 255 255 255 255 255 255 255 255 255 255 255 255 255 255 255 255 255 255 255 255 255 255 255 255 255 255 255 255 255 255 255 255 255 255 255 255 255 255 242 192 199 202 202 201 201 201 202 202 203 211 191 201 204 205 206 208 210 211 211 213 214 221 253 255 255 255 255 255 255 255 255 255 255 255 255 255 207 178 184 193 204 218 228 236 237 254 255 255 255 255 255 255 255 255 255 255 255 255 255
255 255 255 255 255 255 255 255 255 255 255 255 255 255 255 255 255 255 255 255 252 249 248 250 253 255 255 255 255 255 255 255 255 255 255 255 255 255 255 236 202 211 212 210 210 210 210 211 211 209 216 194 206 211 212 215 217 219 220 222 222 221 223 250 255 255 255 255 255 255 255 255 255 255 255 255 245 181 173 180 190 205 218 228 235 237 250 255 255 255 255 255 255 255 255 255 255 255 255 255
255 255 255 255 255 255 255 255 255 255 255 255 255 255 255 255 255 254 243 235 232 229 227 229 233 239 248 255 255 255 255 255 255 255 255 255 255 255 255 243 215 221 223 221 221 220 221 221 220 218 221 201 217 222 224 226 227 228 229 229 229 229 232 253 255 255 255 255 255 252 249 252 255 255 255 255 233 169 170 177 189 203 217 227 233 237 243 255 255 255 255 255 255 255 255 255 255 255 255 255
255 255 255 255 255 255 255 255 255 255 255 255 255 255 255 255 249 231 224 224 222 219 218 217 218 224 231 239 251 255 255 255 255 255 255 255 255 255 255 253 228 224 227 227 227 228 227 228 228 226 227 210 226 230 233 234 234 234 234 235 235 233 240 255 255 255 255 251 234 224 218 221 235 251 255 255 222 164 170 177 188 201 214 226 233 237 242 255 255 255 255 255 255 255 255 255 255 255 255 255
255 255 255 255 255 255 255 255 255 255 255 255 255 255 255 248 219 208 218 216 216 215 216 216 215 213 216 226 235 249 255 255 255 255 255 255 255 255 255 255 247 225 225 227 230 231 232 232 232 232 234 221 232 235 236 237 237 237 237 238 236 238 252 255 255 255 252 223 200 208 209 209 208 225 251 255 214 164 171 178 187 198 213 226 233 237 241 255 255 255 255 255 255 255 255 255 255 255 255 255
255 255 255 255 255 255 255 255 255 255 255 255 255 255 250 222 224 201 200 214 213 214 215 215 216 214 213 213 224 233 251 255 255 255 255 255 255 255 255 255 255 249 238 235 233 233 234 234 234 235 236 226 236 238 238 238 239 238 239 242 247 254 255 255 255 255 230 205 208 197 207 208 207 208 232 255 208 163 169 176 184 196 211 225 233 237 241 255 255 255 255 255 255 255 255 255 255 255 255 255
255 255 255 255 255 255 255 255 255 255 255 255 255 255 227 209 216 223 197 203 214 213 214 214 214 214 214 213 212 224 236 255 255 255 255 255 255 255 255 255 255 255 255 254 253 252 250 249 249 249 247 243 250 250 250 251 252 252 253 255 255 255 255 255 255 254 207 203 208 206 196 206 207 206 216 254 201 161 167 173 182 194 209 223 232 237 240 254 255 255 255 255 255 255 255 255 255 255 255 255
255 255 255 255 255 255 255 255 255 255 255 255 255 246 208 210 211 216 223 195 204 213 212 213 213 213 213 213 212 216 226 249 255 255 255 255 255 255 255 255 255 255 255 255 255 255 255 255 255 255 255 255 255 255 255 255 255 255 255 255 255 255 255 255 255 253 197 201 204 208 202 193 205 203 210 252 196 161 165 171 179 190 206 222 231 237 240 254 255 255 255 255 255 255 255 255 255 255 255 255
255 255 255 255 255 255 255 255 255 255 255 255 255 229 200 211 212 212 216 221 192 204 212 212 212 212 212 213 213 212 220 237 255 255 255 255 255 255 255 255 255 255 255 255 255 255 255 255 255 255 255 255 255 255 255 255 255 255 255 255 255 255 255 255 255 255 199 196 204 203 207 198 196 203 210 253 191 159 163 170 177 187 204 218 229 234 239 253 255 255 255 255 255 255 255 255 255 255 255 255
255 255 255 255 255 255 255 255 255 255 255 255 255 212 199 210 211 213 211 219 218 191 206 210 212 212 211 212 212 212 215 228 254 255 255 255 255 255 255 255 255 255 255 255 255 255 255 255 255 255 255 255 255 255 255 255 255 255 255 255 255 255 255 255 255 255 227 179 202 202 201 207 195 190 228 255 187 159 162 168 174 184 200 215 226 233 239 253 255 255 255 255 255 255 255 255 255 255 255 255
255 255 255 255 255 255 255 255 255 255 255 255 255 202 199 210 211 212 212 212 220 214 188 203 210 211 212 212 212 211 212 223 253 255 255 255 255 255 255 255 255 255 255 255 255 255 255 255 255 255 255 255 255 255 255 255 255 255 255 255 255 255 255 255 255 255 255 208 179 192 196 194 194 210 252 255 183 149 152 155 160 167 178 191 204 217 223 250 255 255 255 255 255 255 255 255 255 255 255 255
255 255 255 255 255 255 255 255 255 255 255 255 255 196 197 210 211 211 211 210 211 221 209 186 204 210 211 210 211 210 212 219 252 255 255 255 253 223 209 220 243 255 255 255 255 255 255 255 255 255 255 255 255 255 255 255 255 255 255 255 255 255 255 255 255 255 255 255 230 200 193 202 229 254 255 255 187 156 165 168 172 180 186 195 208 223 218 248 255 255 255 255 255 255 255 255 255 255 255 255
255 255 255 255 255 255 255 255 255 255 255 255 255 198 194 209 209 210 209 210 211 212 220 202 188 208 210 210 210 211 211 218 253 255 255 245 170 143 152 166 189 236 255 255 255 255 255 255 255 255 255 255 253 249 247 247 250 253 255 255 255 255 255 255 255 255 255 255 255 255 255 255 255 255 255 255 190 163 169 177 186 194 202 212 223 231 236 251 255 255 255 255 255 255 255 255 255 255 255 255
255 255 255 255 255 255 255 255 255 255 255 255 255 209 181 208 207 208 209 210 209 210 212 220 200 191 208 209 208 209 209 222 255 255 255 181 129 142 152 173 193 208 250 255 255 255 255 255 255 255 253 240 228 225 225 228 231 237 245 252 255 255 255 255 255 255 255 255 255 255 255 255 255 255 255 255 188 156 160 166 175 186 198 209 220 227 234 252 255 255 255 255 255 255 255 255 255 255 255 255
255 255 255 255 255 255 255 255 255 255 255 255 255 233 172 201 208 209 210 209 209 208 208 212 223 194 193 208 207 208 205 236 255 255 249 144 128 133 147 174 200 202 241 255 255 255 255 255 255 248 226 221 220 219 217 219 221 224 232 244 252 255 255 255 255 255 255 255 255 255 255 255 255 255 255 255 193 156 161 165 174 187 200 212 222 227 233 253 255 255 255 255 255 255 255 255 255 255 255 255
255 255 255 255 255 255 255 255 255 255 255 255 255 252 188 179 206 207 208 208 208 208 208 208 212 220 189 194 207 206 212 251 255 255 244 136 125 128 143 171 198 201 238 255 255 255 255 255 249 219 216 220 220 218 216 215 215 215 218 230 247 254 255 255 255 255 255 255 254 247 243 247 254 255 255 255 199 157 161 164 173 187 202 213 222 226 230 252 255 255 255 255 255 255 255 255 255 255 255 255
255 255 255 255 255 255 255 255 255 255 255 255 255 255 233 167 192 206 207 207 208 207 206 207 208 212 218 185 191 199 237 255 255 255 244 134 123 126 140 169 195 198 237 255 255 255 255 254 224 211 217 219 219 217 216 214 213 214 215 215 231 250 255 255 255 255 255 246 219 209 203 205 222 247 255 255 205 155 161 165 172 185 201 213 221 225 230 253 255 255 255 255 255 255 255 255 255 255 255 255
255 255 255 255 255 255 255 255 255 255 255 255 255 255 255 214 163 189 204 206 206 205 205 205 206 206 212 210 180 222 255 255 255 255 243 132 121 124 138 166 194 196 236 255 255 255 255 242 208 214 218 219 218 217 216 214 213 213 213 214 217 242 253 254 255 255 249 208 184 191 195 194 193 211 247 255 212 151 157 165 173 185 199 212 220 223 232 254 255 255 255 255 255 255 255 255 255 255 255 255
255 255 255 255 255 255 255 255 255 255 255 255 255 255 255 255 220 169 174 196 205 205 205 203 203 199 189 198 231 254 255 255 255 255 243 131 119 121 135 164 192 195 236 255 255 255 255 225 207 216 218 218 217 215 215 215 213 212 213 213 214 230 251 254 255 255 217 188 197 181 191 194 193 193 222 255 222 151 156 165 172 185 199 211 219 220 232 255 255 255 255 255 255 255 255 255 255 255 255 255
255 255 255 255 255 255 255 255 255 255 255 255 255 255 255 255 255 242 202 175 173 179 182 182 180 186 210 244 255 255 255 255 255 255 242 129 117 119 133 164 192 195 235 255 255 255 254 214 208 217 218 217 216 214 214 216 214 212 211 212 214 222 246 254 255 254 192 188 194 195 178 190 191 191 203 253 234 152 153 163 171 185 200 211 217 219 233 255 255 255 255 255 255 255 255 255 255 255 255 255
255 255 255 255 255 255 255 255 255 255 255 255 255 255 255 255 255 255 255 245 224 209 205 210 227 245 255 255 255 255 255 255 255 255 244 131 116 118 132 162 191 194 235 255 255 255 253 208 208 217 217 216 215 214 214 214 213 211 210 211 212 220 244 254 255 253 182 186 189 194 190 174 189 189 195 248 244 159 151 162 172 185 202 212 215 216 237 255 255 255 255 255 255 255 255 255 255 255 255 255
255 255 255 255 255 255 255 255 255 255 255 255 255 255 255 255 255 255 255 255 255 255 255 255 255 255 255 255 255 255 255 255 255 255 234 123 116 120 134 162 189 192 228 255 255 255 254 209 206 217 216 214 214 213 213 213 213 211 210 209 213 220 243 254 255 255 189 177 188 188 192 187 177 186 199 252 254 177 148 160 173 187 203 213 212 213 246 255 255 255 255 255 255 255 255 255 255 255 255 255
255 255 255 255 255 255 255 255 255 255 255 255 255 255 255 255 255 255 255 255 255 255 255 255 255 255 255 255 255 255 255 255 255 255 221 103 101 108 128 158 189 194 221 255 255 255 255 215 200 215 215 214 214 212 213 213 214 213 210 212 215 223 242 254 255 255 228 159 183 187 185 192 181 170 226 255 255 224 152 155 170 184 200 208 205 223 255 255 255 255 255 255 255 255 255 255 255 255 255 255
255 255 255 255 255 255 255 255 255 255 255 255 255 255 255 255 255 255 255 255 255 255 255 255 255 255 255 255 255 255 255 255 255 255 224 102 97 103 123 155 189 194 221 255 255 255 255 231 194 211 215 214 213 213 213 213 213 213 212 214 216 227 243 255 255 255 255 209 160 169 175 171 177 210 254 255 255 255 217 159 155 171 189 204 222 251 255 255 255 255 255 255 255 255 255 255 255 255 255 255
255 255 255 255 255 255 255 255 255 255 255 255 255 255 255 255 255 255 255 255 255 255 255 255 255 255 255 255 255 255 255 255 255 255 227 102 94 102 122 152 186 193 223 255 255 255 255 250 200 200 213 215 213 213 213 214 214 215 215 215 221 231 250 255 255 255 255 255 238 202 189 201 234 255 255 255 255 255 255 242 212 203 215 240 254 255 255 255 255 255 255 255 255 255 255 255 255 255 255 255
255 255 255 255 255 255 255 255 255 255 255 255 255 255 255 255 255 255 255 255 255 255 255 255 255 255 255 255 255 255 255 255 255 255 227 101 93 100 121 152 186 192 223 255 255 255 255 255 235 189 201 213 215 214 215 217 217 217 217 218 226 243 255 255 255 255 255 255 255 255 255 255 255 255 255 255 255 255 255 255 255 255 255 255 255 255 255 255 255 255 255 255 255 255 255 255 255 255 255 255
255 255 255 255 255 255 255 255 255 255 255 255 255 255 255 255 255 255 255 255 255 255 255 255 255 255 255 255 255 255 255 255 255 255 228 99 90 97 118 149 182 190 222 255 255 255 255 255 255 226 188 196 210 214 215 217 219 219 219 223 239 254 255 255 255 255 255 255 255 255 255 255 255 255 255 255 255 255 255 255 255 255 255 255 255 255 255 255 255 255 255 255 255 255 255 255 255 255 255 255
255 255 255 255 255 255 255 255 255 255 255 255 255 255 255 255 255 255 249 246 244 251 255 255 255 255 255 255 255 255 255 255 255 255 228 97 89 95 118 149 183 190 222 255 255 255 255 255 254 255 234 199 190 196 203 208 211 214 224 243 255 255 255 255 255 255 255 255 255 255 255 255 255 255 255 255 255 255 255 255 255 255 255 255 255 255 255 255 255 255 255 255 255 255 255 255 255 255 255 255
255 255 255 255 255 255 255 255 255 255 255 255 255 255 255 255 224 201 213 211 193 173 199 252 255 255 255 255 255 255 255 255 255 255 226 96 88 95 119 151 185 193 224 255 255 255 255 255 255 255 255 253 238 223 217 220 228 241 252 255 255 255 255 255 255 255 255 255 220 192 189 189 189 188 187 185 186 213 216 215 216 217 217 220 235 255 255 255 255 255 255 255 255 255 255 255 255 255 255 255
255 255 255 255 255 255 255 255 255 255 255 255 255 255 255 210 176 214 232 234 226 191 130 172 252 255 255 255 255 255 255 255 255 255 235 97 86 93 115 145 175 185 226 255 255 255 255 255 255 255 255 255 255 255 255 255 255 255 255 255 255 255 255 255 255 255 254 161 82 79 81 81 82 85 85 87 92 103 103 104 105 106 107 110 119 172 249 254 255 255 255 255 255 255 255 255 255 255 255 255
255 255 255 255 255 255 255 255 255 255 255 255 255 255 224 163 218 228 228 224 211 195 166 126 193 255 255 255 255 255 255 255 255 255 252 136 76 90 108 130 150 182 245 255 255 255 255 255 255 255 255 255 255 255 255 255 255 255 255 255 255 255 255 255 255 255 199 71 80 81 83 82 84 86 87 88 96 103 103 104 105 107 108 111 116 113 184 255 255 255 255 255 255 255 255 255 255 255 255 255
255 255 255 255 255 255 255 255 255 255 255 255 255 253 179 198 226 223 216 208 202 193 177 156 133 246 255 255 255 255 255 255 255 255 255 236 128 81 92 113 157 232 255 255 255 255 255 255 255 255 255 255 255 255 255 255 255 255 255 255 255 255 255 255 255 255 135 77 89 91 93 91 93 95 97 97 104 107 106 108 109 111 112 115 119 125 141 247 255 255 255 255 255 255 255 255 255 255 255 255
255 255 255 255 255 255 255 255 255 255 255 255 255 241 185 220 225 216 208 207 203 193 180 173 128 215 255 255 255 255 255 255 255 255 255 255 253 213 189 206 244 255 255 255 255 255 255 255 255 255 255 255 255 255 255 255 255 255 255 255 255 255 255 255 255 254 124 91 104 108 109 108 109 110 110 112 118 118 118 119 120 122 124 127 131 133 141 240 255 255 255 255 255 255 255 255 255 255 255 255
255 255 255 255 255 255 255 255 255 255 255 255 255 236 205 224 221 209 206 206 202 191 179 175 137 184 255 255 255 255 255 255 255 255 255 255 255 255 255 255 255 255 255 255 255 255 255 255 255 255 255 255 255 255 255 255 255 255 255 255 255 255 255 255 255 255 157 105 123 136 139 135 138 140 140 143 144 147 148 148 149 151 154 155 158 148 157 248 255 255 255 255 255 255 255 255 255 255 255 255
255 255 255 255 255 255 255 255 255 255 255 255 255 235 213 224 217 207 206 206 202 191 180 174 146 162 255 255 255 255 255 255 255 255 255 255 255 255 255 255 255 255 255 255 255 255 255 255 255 255 255 255 255 255 255 255 255 255 255 255 255 255 255 255 255 255 225 134 140 158 162 159 161 162 163 164 164 164 165 165 166 167 170 172 171 162 204 255 255 255 255 255 255 255 255 255 255 255 255 255
255 255 255 255 255 255 255 255 255 255 255 255 255 232 216 224 214 207 205 205 200 192 182 176 155 150 255 255 255 255 255 255 255 255 255 255 255 255 255 255 255 255 255 255 255 255 255 255 255 255 255 255 255 255 255 255 255 255 255 255 255 255 255 255 255 255 255 218 166 164 165 163 165 165 165 166 165 170 172 173 173 175 177 178 185 213 253 255 255 255 255 255 255 255 255 255 255 255 255 255
255 255 255 255 255 255 255 255 255 255 255 255 255 230 218 223 212 206 204 203 200 193 184 178 160 145 255 255 255 255 255 255 255 255 255 255 255 255 255 255 255 255 255 255 255 255 255 255 255 255 255 255 255 255 255 255 255 255 255 255 255 255 255 255 255 255 255 255 245 230 229 229 229 228 227 226 226 238 241 242 243 243 244 244 249 255 255 255 255 255 255 255 255 255 255 255 255 255 255 255
255 255 255 255 255 255 255 255 255 255 255 255 255 229 219 221 210 205 204 201 199 194 185 180 164 145 255 255 255 255 255 255 255 249 236 232 232 236 246 254 255 255 255 255 255 255 255 255 255 255 254 247 243 247 251 255 255 255 255 255 255 255 255 255 255 255 255 255 255 255 255 255 255 255 255 255 255 255 255 255 255 255 255 255 255 255 255 255 255 255 255 255 255 255 255 255 255 255 255 255
255 255 255 255 255 255 255 255 255 255 255 255 255 227 219 220 210 204 203 202 198 194 186 180 165 144 255 255 255 255 255 254 230 210 212 220 223 226 231 237 250 255 255 255 255 255 255 255 255 250 230 221 224 231 237 245 254 255 255 255 255 255 255 255 255 255 255 255 255 255 255 255 255 255 255 255 255 255 255 255 255 255 255 255 255 255 255 255 255 255 255 255 255 255 255 255 255 255 255 255
255 255 255 255 255 255 255 255 255 255 255 255 255 227 219 219 210 204 203 201 198 194 188 181 166 144 254 255 255 255 254 222 198 205 213 221 224 228 232 234 237 250 255 255 255 255 255 255 251 223 218 221 226 233 239 241 246 255 255 255 255 255 255 255 255 255 255 255 255 255 255 255 255 255 255 255 255 255 255 255 255 255 255 255 255 255 255 255 255 255 255 255 255 255 255 255 255 255 255 255
255 255 255 255 255 255 255 255 255 255 255 255 255 227 220 218 209 204 203 200 197 193 187 181 166 142 253 255 255 255 231 196 200 205 213 219 223 228 231 235 236 240 254 255 255 255 255 255 233 211 215 219 226 234 239 243 243 253 255 255 255 255 255 255 255 255 255 255 255 255 254 243 232 224 223 223 226 233 242 251 255 255 255 255 255 255 255 255 255 255 255 255 255 255 255 255 255 255 255 255
255 255 255 255 255 255 255 255 255 255 255 255 255 227 219 218 209 204 203 200 197 193 187 180 163 134 252 255 255 253 205 195 201 207 213 219 223 226 231 233 237 238 250 255 255 255 255 253 217 208 212 217 225 233 238 243 244 249 255 255 255 255 255 255 255 255 255 255 253 236 215 205 204 205 207 209 211 213 216 223 236 251 255 255 255 255 255 255 255 255 255 255 255 255 255 255 255 255 255 255
255 255 255 255 255 255 255 255 255 255 255 255 255 227 219 217 209 204 202 199 197 193 186 179 161 128 251 255 255 244 196 197 202 209 214 216 220 223 229 232 236 237 246 255 255 255 255 249 210 207 211 217 224 232 238 242 245 246 255 255 255 255 255 255 255 255 255 246 216 202 202 202 202 200 200 201 203 205 210 216 221 230 246 255 255 255 255 255 255 255 255 255 255 255 255 255 255 255 255 255
255 255 255 255 255 255 255 255 255 255 255 255 255 227 219 217 208 204 202 199 198 194 186 178 159 121 251 255 255 238 194 197 200 206 212 214 218 221 226 230 234 236 244 255 255 255 255 245 207 207 211 217 223 231 238 242 245 246 254 255 255 255 255 255 255 255 240 203 198 202 202 200 199 197 197 197 198 198 198 201 212 224 230 245 255 255 255 255 255 255 255 255 255 255 255 255 255 255 255 255
255 255 255 255 255 255 255 255 255 255 255 255 255 226 217 215 207 203 202 199 198 194 186 178 157 115 251 255 255 240 192 194 195 201 207 212 215 218 223 229 231 233 244 255 255 255 255 241 205 207 211 215 222 230 237 242 244 246 254 255 255 255 255 255 255 245 199 194 199 201 201 200 198 197 196 195 195 196 195 196 199 207 224 233 248 255 255 255 255 255 255 255 255 255 255 255 255 255 255 255
255 255 255 255 255 255 255 255 255 255 255 255 255 225 217 216 207 202 201 199 197 192 185 177 156 121 253 255 255 249 193 189 193 196 202 208 211 217 222 227 230 230 247 255 255 255 255 238 204 206 210 214 220 229 237 242 244 246 254 255 255 255 255 255 253 206 190 196 199 201 201 201 198 197 196 195 194 194 194 194 197 197 206 227 235 252 255 255 255 255 255 255 255 255 255 255 255 255 255 255
255 255 255 255 255 255 255 255 255 255 255 255 255 224 217 216 206 202 200 199 198 192 184 176 159 139 255 255 255 255 212 179 184 190 196 202 208 213 218 223 226 232 253 255 255 255 255 234 204 206 208 212 219 227 236 241 244 246 253 255 255 255 255 255 228 187 193 197 199 200 199 200 198 197 197 195 194 193 193 193 194 195 197 212 231 242 255 255 255 255 255 255 255 255 255 255 255 255 255 255
255 255 255 255 255 255 255 255 255 255 255 255 255 222 216 215 206 201 199 198 197 192 184 175 164 150 254 255 255 255 247 187 171 178 188 196 204 209 212 217 221 244 255 255 255 255 255 231 202 205 208 212 217 225 234 240 244 245 253 255 255 255 255 251 198 187 194 198 199 200 198 198 198 197 196 195 194 194 194 193 192 194 196 200 223 234 251 255 255 255 255 255 255 255 255 255 255 255 255 255
255 255 255 255 255 255 255 255 255 255 255 255 255 221 216 214 206 200 199 197 196 192 184 175 166 150 254 255 255 255 255 239 181 164 175 188 196 202 204 213 239 255 255 255 255 255 255 229 202 204 207 211 216 224 232 238 243 245 253 255 255 255 255 234 184 189 195 198 200 199 199 198 196 197 197 195 194 195 193 192 194 193 195 197 210 231 243 255 255 255 255 255 255 255 255 255 255 255 255 255
255 255 255 255 255 255 255 255 255 255 255 255 255 221 216 214 205 199 198 196 196 192 183 174 166 150 254 255 255 255 255 255 247 207 185 185 193 204 221 245 255 255 255 255 255 255 255 227 201 204 206 210 214 222 231 237 243 245 252 255 255 255 255 215 182 190 196 198 199 198 198 198 196 196 196 195 194 193 192 191 193 193 194 196 202 227 238 254 255 255 255 255 255 255 255 255 255 255 255 255
255 255 255 255 255 255 255 255 255 255 255 255 255 221 216 214 204 199 198 196 196 191 183 174 165 151 254 255 255 255 255 255 255 255 255 246 246 253 255 255 255 255 255 255 255 255 255 226 195 197 198 199 202 207 214 222 231 233 248 255 255 255 255 201 181 191 197 198 200 197 197 197 196 194 195 196 195 191 193 191 190 191 193 196 198 220 235 253 255 255 255 255 255 255 255 255 255 255 255 255
255 255 255 255 255 255 255 255 255 255 255 255 255 221 216 214 205 199 197 195 195 190 182 173 164 148 253 255 255 255 255 255 255 250 238 234 234 238 247 254 255 255 255 255 255 255 255 229 203 209 212 214 217 220 225 231 238 237 247 255 255 255 254 194 179 192 198 198 198 197 197 196 195 194 195 196 196 192 192 191 191 191 192 195 197 217 234 252 255 255 255 255 255 255 255 255 255 255 255 255
255 255 255 255 255 255 255 255 255 255 255 255 255 222 215 215 205 199 197 194 193 189 182 173 162 144 253 255 255 255 255 254 230 212 213 220 224 227 231 238 250 255 255 255 255 255 255 228 203 206 210 214 217 223 228 234 239 243 251 255 255 255 254 192 179 192 198 198 197 195 195 194 195 194 194 194 195 192 192 190 190 190 191 193 197 217 233 252 255 255 255 255 255 255 255 255 255 255 255 255
255 255 255 255 255 255 255 255 255 255 255 255 255 225 215 215 205 199 197 194 192 188 182 172 159 143 255 255 255 255 254 223 198 205 214 221 225 229 233 235 237 250 255 255 255 255 255 228 200 203 205 211 215 221 228 234 238 242 251 255 255 255 255 196 177 190 196 197 195 195 195 193 194 195 193 193 194 194 192 190 189 190 191 194 196 217 232 252 255 255 255 255 255 255 255 255 255 255 255 255
255 255 255 255 255 255 255 255 255 255 255 255 255 228 214 214 205 199 197 195 193 189 181 172 155 143 255 255 255 255 233 198 201 206 214 220 225 229 231 236 237 242 254 255 255 255 255 232 201 203 206 210 216 223 230 235 239 241 252 255 255 255 255 206 173 187 194 196 196 195 194 193 191 194 193 193 193 194 193 191 190 192 192 196 200 217 232 254 255 255 255 255 255 255 255 255 255 255 255 255
255 255 255 255 255 255 255 255 255 255 255 255 255 231 213 215 206 200 197 196 193 189 181 172 150 146 255 255 255 252 207 197 203 209 214 220 224 227 232 235 238 239 250 255 255 255 255 235 201 204 206 209 216 223 230 235 239 240 251 255 255 255 255 223 171 182 192 195 195 195 194 192 192 193 194 193 193 195 194 192 191 193 194 197 203 217 235 255 255 255 255 255 255 255 255 255 255 255 255 255
255 255 255 255 255 255 255 255 255 255 255 255 255 236 213 215 207 201 198 198 194 189 181 174 145 157 255 255 255 244 197 198 204 209 214 217 221 224 230 233 237 238 246 255 255 255 255 239 200 203 206 209 215 223 230 235 238 239 252 255 255 255 255 244 178 174 188 194 195 195 193 191 193 192 194 194 194 193 193 193 192 195 195 198 208 218 243 255 255 255 255 255 255 255 255 255 255 255 255 255
255 255 255 255 255 255 255 255 255 255 255 255 255 242 214 215 208 202 200 199 195 190 181 177 137 180 255 255 255 239 195 198 201 207 212 215 219 221 227 232 235 236 244 255 255 255 255 242 200 200 205 209 215 222 230 234 237 239 253 255 255 255 255 255 203 168 181 191 196 196 194 194 193 193 194 194 193 193 194 195 195 196 196 202 211 223 253 255 255 255 255 255 255 255 255 255 255 255 255 255
255 255 255 255 255 255 255 255 255 255 255 255 255 246 213 215 209 203 201 199 197 191 182 178 134 208 255 255 255 239 193 196 198 205 209 212 215 219 224 230 233 234 245 255 255 255 255 248 201 198 204 209 214 223 230 233 236 239 253 255 255 255 255 255 242 175 169 184 192 194 195 194 193 193 195 196 195 196 197 197 197 196 199 207 211 241 255 255 255 255 255 255 255 255 255 255 255 255 255 255
255 255 255 255 255 255 255 255 255 255 255 255 255 249 213 213 208 205 203 201 199 192 183 180 143 232 255 255 255 248 195 192 197 201 206 210 213 217 222 227 231 231 248 255 255 255 255 251 204 197 203 209 214 223 230 233 234 239 255 255 255 255 255 255 255 221 164 171 185 192 194 194 194 193 195 197 198 197 199 199 197 198 203 208 230 255 255 255 255 255 255 255 255 255 255 255 255 255 255 255
255 255 255 255 255 255 255 255 255 255 255 255 255 254 217 209 210 208 207 205 202 194 187 172 156 252 255 255 255 255 213 187 194 198 203 207 211 214 219 225 227 232 253 255 255 255 255 254 212 196 203 209 215 224 231 233 232 242 255 255 255 255 255 255 255 255 208 162 170 182 190 194 194 195 195 197 198 199 200 200 200 203 205 225 253 255 255 255 255 255 255 255 255 255 255 255 255 255 255 255
255 255 255 255 255 255 255 255 255 255 255 255 255 255 239 202 211 212 210 207 201 196 188 130 207 255 255 255 255 255 246 195 185 192 198 204 208 210 213 219 221 243 255 255 255 255 255 255 226 194 201 208 216 224 231 231 229 247 255 255 255 255 255 255 255 255 255 211 164 163 175 184 191 194 195 196 198 199 200 200 201 204 228 253 255 255 255 255 255 255 255 255 255 255 255 255 255 255 255 255
255 255 255 255 255 255 255 255 255 255 255 255 255 255 255 227 185 207 217 212 205 192 154 186 255 255 255 255 255 255 255 240 193 182 189 198 202 204 206 214 239 255 255 255 255 255 255 255 250 208 197 205 214 222 229 227 235 254 255 255 255 255 255 255 255 255 255 255 229 183 163 164 172 179 187 189 191 191 191 195 210 238 255 255 255 255 255 255 255 255 255 255 255 255 255 255 255 255 255 255
255 255 255 255 255 255 255 255 255 255 255 255 255 255 255 255 223 204 214 209 206 206 220 255 255 255 255 255 255 255 255 255 247 213 196 193 197 205 222 244 255 255 255 255 255 255 255 255 255 248 214 200 207 216 226 238 253 255 255 255 255 255 255 255 255 255 255 255 255 253 232 206 188 176 176 180 187 196 214 235 253 255 255 255 255 255 255 255 255 255 255 255 255 255 255 255 255 255 255 255
255 255 255 255 255 255 255 255 255 255 255 255 255 255 255 255 255 254 248 245 249 255 255 255 255 255 255 255 255 255 255 255 255 255 252 245 246 251 255 255 255 255 255 255 255 255 255 255 255 255 255 243 235 239 249 255 255 255 255 255 255 255 255 255 255 255 255 255 255 255 255 255 255 249 244 243 247 252 255 255 255 255 255 255 255 255 255 255 255 255 255 255 255 255 255 255 255 255 255 255
255 255 255 255 255 255 255 255 255 255 255 255 255 255 255 255 255 255 255 255 255 255 255 255 255 255 255 255 255 255 255 255 255 255 255 255 255 255 255 255 255 255 255 255 255 255 255 255 255 255 255 255 255 255 255 255 255 255 255 255 255 255 255 255 255 255 255 255 255 255 255 255 255 255 255 255 255 255 255 255 255 255 255 255 255 255 255 255 255 255 255 255 255 255 255 255 255 255 255 255
255 255 255 255 255 255 255 255 255 255 255 255 255 255 255 255 255 255 255 255 255 255 255 255 255 255 255 255 255 255 255 255 255 255 255 255 255 255 255 255 255 255 255 255 255 255 255 255 255 255 255 255 255 255 255 255 255 255 255 255 255 255 255 255 255 255 255 255 255 255 255 255 255 255 255 255 255 255 255 255 255 255 255 255 255 255 255 255 255 255 255 255 255 255 255 255 255 255 255 255
255 255 255 255 255 255 255 255 255 255 255 255 255 255 255 255 255 255 255 255 255 255 255 255 255 255 255 255 255 255 255 255 255 255 255 255 255 255 255 255 255 255 255 255 255 255 255 255 255 255 255 255 255 255 255 255 255 255 255 255 255 255 255 255 255 255 255 255 255 255 255 255 255 255 255 255 255 255 255 255 255 255 255 255 255 255 255 255 255 255 255 255 255 255 255 255 255 255 255 255
255 255 255 255 255 255 255 255 255 255 255 255 255 255 255 255 255 255 255 255 255 255 255 255 255 255 255 255 255 255 255 255 255 255 255 255 255 255 255 255 255 255 255 255 255 255 255 255 255 255 255 255 255 255 255 255 255 255 255 255 255 255 255 255 255 255 255 255 255 255 255 255 255 255 255 255 255 255 255 255 255 255 255 255 255 255 255 255 255 255 255 255 255 255 255 255 255 255 255 255
